<?xml version="1.0" standalone="no"?>
<!DOCTYPE svg PUBLIC "-//W3C//DTD SVG 20010904//EN"
 "http://www.w3.org/TR/2001/REC-SVG-20010904/DTD/svg10.dtd">
<svg version="1.0" xmlns="http://www.w3.org/2000/svg"
 width="700.000000pt" height="700.000000pt" viewBox="0 0 700.000000 700.000000"
 preserveAspectRatio="xMidYMid meet">
<metadata>
Created by potrace 1.11, written by Peter Selinger 2001-2013
</metadata>
<g transform="translate(0.000000,700.000000) scale(0.100000,-0.100000)"
fill="#000000" stroke="none">
<path d="M1125 6237 c-134 -29 -216 -53 -274 -79 -279 -130 -481 -347 -573
-618 -15 -41 -29 -88 -32 -105 -3 -16 -7 -43 -10 -60 -16 -82 -18 -106 -17
-201 1 -146 7 -151 51 -47 65 153 230 446 291 518 10 11 27 31 39 45 141 166
370 346 585 461 33 17 80 45 105 60 l45 29 -40 1 c-22 1 -60 2 -85 3 -25 1
-63 -2 -85 -7z"/>
<path d="M5730 6230 l-55 -5 35 -20 c19 -12 78 -43 130 -69 86 -44 126 -71
303 -199 230 -167 438 -448 591 -801 14 -32 26 -66 26 -75 0 -14 2 -14 10 -1
5 8 10 63 10 121 0 293 -102 547 -303 753 -71 72 -189 166 -210 166 -6 0 -18
7 -26 15 -18 15 -205 80 -260 90 -19 3 -37 8 -41 10 -4 2 -35 7 -71 10 -35 4
-68 7 -74 8 -5 1 -35 0 -65 -3z"/>
<path d="M1737 5984 c-1 -1 -31 -4 -67 -7 -103 -9 -327 -70 -431 -118 -408
-187 -704 -532 -823 -959 -40 -145 -66 -415 -49 -505 6 -26 9 -21 39 55 18 47
33 92 33 100 3 53 168 395 257 531 110 169 306 376 469 495 22 16 42 32 45 35
22 27 280 180 448 265 113 57 201 104 196 105 -18 2 -116 4 -117 3z"/>
<path d="M5140 5982 c-6 -2 77 -48 184 -102 193 -98 216 -111 351 -199 387
-250 649 -571 831 -1016 14 -33 29 -69 33 -80 10 -24 53 -135 74 -190 l15 -40
7 56 c6 51 1 215 -9 264 -2 11 -7 43 -10 70 -12 79 -53 233 -85 317 -109 281
-326 534 -601 704 -65 40 -76 45 -205 104 -61 28 -237 80 -316 94 -89 15 -246
25 -269 18z"/>
<path d="M1908 5554 c-2 -1 -25 -5 -51 -8 -27 -4 -67 -10 -90 -16 -23 -5 -53
-11 -67 -14 -47 -9 -170 -55 -245 -91 -246 -120 -472 -349 -612 -620 -95 -184
-162 -396 -179 -560 -10 -102 -7 -270 5 -345 18 -110 21 -123 42 -200 78 -293
248 -598 513 -920 159 -194 418 -450 641 -636 28 -23 75 -63 105 -88 222 -187
601 -461 1015 -734 160 -105 295 -195 300 -199 6 -5 39 -28 75 -52 36 -25 80
-57 98 -73 18 -15 38 -28 43 -28 6 0 37 18 68 41 31 22 130 89 221 147 393
254 540 353 750 506 139 102 401 304 457 353 17 16 42 37 55 47 173 142 515
470 635 611 105 122 206 252 261 335 31 47 60 87 63 90 3 3 35 57 71 120 127
223 208 437 238 626 6 38 13 83 16 99 7 37 7 255 0 310 -26 214 -111 445 -240
655 -170 276 -428 484 -713 574 -91 28 -103 31 -218 51 -91 15 -341 18 -430 4
-33 -5 -71 -11 -85 -13 -250 -37 -609 -198 -805 -361 -162 -134 -287 -302
-328 -442 l-15 -48 -17 40 c-36 88 -50 113 -102 192 -124 188 -343 367 -598
488 -84 40 -291 111 -350 121 -22 3 -42 7 -45 9 -5 3 -25 6 -150 24 -59 8
-325 13 -332 5z"/>
<path d="M848 2558 c-5 -14 13 -65 37 -110 8 -14 15 -31 15 -37 0 -29 172
-296 265 -411 130 -160 427 -412 630 -535 139 -84 372 -176 387 -152 4 6 -25
41 -65 80 -40 38 -144 139 -233 226 -232 226 -317 306 -424 401 -52 47 -124
112 -160 145 -36 33 -114 105 -174 160 -61 55 -126 115 -145 133 -83 78 -129
112 -133 100z"/>
<path d="M6119 2537 c-91 -82 -318 -289 -355 -323 -50 -47 -117 -108 -214
-194 -94 -83 -229 -211 -449 -426 -97 -95 -197 -192 -223 -217 -27 -26 -48
-53 -48 -61 0 -28 114 13 309 111 137 70 171 93 350 238 222 178 409 382 532
578 72 116 156 304 142 318 -4 4 -24 -7 -44 -24z"/>
<path d="M387 2233 c-8 -13 58 -153 131 -277 242 -407 781 -904 1214 -1118 54
-26 104 -48 112 -48 8 0 17 -4 20 -9 7 -11 65 -23 78 -15 6 4 -39 54 -98 111
-60 58 -228 221 -374 362 -309 301 -303 294 -451 432 -146 136 -157 146 -258
238 -46 42 -112 101 -145 132 -34 30 -83 75 -111 100 -27 24 -57 51 -65 59
-29 29 -48 41 -53 33z"/>
<path d="M6584 2222 c-10 -10 -89 -81 -174 -157 -156 -142 -539 -494 -596
-550 -17 -16 -149 -145 -294 -285 -144 -140 -307 -298 -361 -350 -125 -120
-130 -140 -27 -99 154 60 397 200 564 325 220 164 522 472 686 700 90 125 192
303 228 399 12 31 -1 40 -26 17z"/>
</g>
</svg>
